HIERARCHY
ROOT hip
{
  OFFSET 0 0 0
  CHANNELS 6 Xposition Yposition Zposition Zrotation Yrotation Xrotation
  JOINT abdomen
  {
    OFFSET 0 20.6881 -0.73152
    CHANNELS 3 Zrotation Xrotation Yrotation
    JOINT chest
    {
      OFFSET 0 11.7043 -0.48768
      CHANNELS 3 Zrotation Xrotation Yrotation
      JOINT neck
      {
        OFFSET 0 22.1894 -2.19456
        CHANNELS 3 Zrotation Xrotation Yrotation
        JOINT head
        {
          OFFSET -0.24384 7.07133 1.2192
          CHANNELS 3 Zrotation Xrotation Yrotation
          JOINT leftEye
          {
            OFFSET 4.14528 8.04674 8.04672
            CHANNELS 3 Zrotation Xrotation Yrotation
            End Site
            {
              OFFSET 1 0 0
            }
          }
          JOINT rightEye
          {
            OFFSET -3.6576 8.04674 8.04672
            CHANNELS 3 Zrotation Xrotation Yrotation
            End Site
            {
              OFFSET 1 0 0
            }
          }
        }
      }
      JOINT rCollar
      {
        OFFSET -2.68224 19.2634 -4.8768
        CHANNELS 3 Zrotation Xrotation Yrotation
        JOINT rShldr
        {
          OFFSET -8.77824 -1.95073 1.46304
          CHANNELS 3 Zrotation Xrotation Yrotation
          JOINT rForeArm
          {
            OFFSET -28.1742 -1.7115 0.48768
            CHANNELS 3 Zrotation Xrotation Yrotation
            JOINT rHand
            {
              OFFSET -22.5879 0.773209 7.07136
              CHANNELS 3 Zrotation Xrotation Yrotation
              JOINT rThumb1
              {
                OFFSET -1.2192 -0.487915 3.41376
                CHANNELS 3 Zrotation Xrotation Yrotation
                JOINT rThumb2
                {
                  OFFSET -3.37035 -0.52449 3.41376
                  CHANNELS 3 Zrotation Xrotation Yrotation
                  End Site
                  {
                    OFFSET -1.78271 -1.18214 1.43049
                  }
                }
              }
              JOINT rIndex1
              {
                OFFSET -7.75947 0.938293 5.60832
                CHANNELS 3 Zrotation Xrotation Yrotation
                JOINT rIndex2
                {
                  OFFSET -2.54057 -0.884171 1.56538
                  CHANNELS 3 Zrotation Xrotation Yrotation
                  End Site
                  {
                    OFFSET -1.62519 -0.234802 1.16502
                  }
                }
              }
              JOINT rMid1
              {
                OFFSET -8.24714 1.18213 3.41376
                CHANNELS 3 Zrotation Xrotation Yrotation
                JOINT rMid2
                {
                  OFFSET -3.10165 -0.590103 1.0647
                  CHANNELS 3 Zrotation Xrotation Yrotation
                  End Site
                  {
                    OFFSET -2.48547 -0.328903 0.83742
                  }
                }
              }
              JOINT rRing1
              {
                OFFSET -8.82822 0.546677 1.51678
                CHANNELS 3 Zrotation Xrotation Yrotation
                JOINT rRing2
                {
                  OFFSET -2.60934 -0.819778 -0.0198488
                  CHANNELS 3 Zrotation Xrotation Yrotation
                  End Site
                  {
                    OFFSET -2.33842 -0.294052 0.168128
                  }
                }
              }
              JOINT rPinky1
              {
                OFFSET -8.27202 -0.0477905 -0.4584
                CHANNELS 3 Zrotation Xrotation Yrotation
                JOINT rPinky2
                {
                  OFFSET -1.82734 -0.647385 -0.700984
                  CHANNELS 3 Zrotation Xrotation Yrotation
                  End Site
                  {
                    OFFSET -1.69225 -0.51767 -0.607171
                  }
                }
              }
            }
          }
        }
      }
      JOINT lCollar
      {
        OFFSET 2.68224 19.2634 -4.8768
        CHANNELS 3 Zrotation Xrotation Yrotation
        JOINT lShldr
        {
          OFFSET 8.77824 -1.95073 1.46304
          CHANNELS 3 Zrotation Xrotation Yrotation
          JOINT lForeArm
          {
            OFFSET 28.1742 -1.7115 0.48768
            CHANNELS 3 Zrotation Xrotation Yrotation
            JOINT lHand
            {
              OFFSET 22.5879 0.773209 7.07136
              CHANNELS 3 Zrotation Xrotation Yrotation
              JOINT lThumb1
              {
                OFFSET 1.2192 -0.487915 3.41376
                CHANNELS 3 Zrotation Xrotation Yrotation
                JOINT lThumb2
                {
                  OFFSET 3.37035 -0.52449 3.41376
                  CHANNELS 3 Zrotation Xrotation Yrotation
                  End Site
                  {
                    OFFSET 1.78271 -1.18214 1.43049
                  }
                }
              }
              JOINT lIndex1
              {
                OFFSET 7.75947 0.938293 5.60832
                CHANNELS 3 Zrotation Xrotation Yrotation
                JOINT lIndex2
                {
                  OFFSET 2.54057 -0.884171 1.56538
                  CHANNELS 3 Zrotation Xrotation Yrotation
                  End Site
                  {
                    OFFSET 1.62519 -0.234802 1.16502
                  }
                }
              }
              JOINT lMid1
              {
                OFFSET 8.24714 1.18213 3.41376
                CHANNELS 3 Zrotation Xrotation Yrotation
                JOINT lMid2
                {
                  OFFSET 3.10165 -0.590103 1.0647
                  CHANNELS 3 Zrotation Xrotation Yrotation
                  End Site
                  {
                    OFFSET 2.48547 -0.328903 0.83742
                  }
                }
              }
              JOINT lRing1
              {
                OFFSET 8.82822 0.546677 1.51678
                CHANNELS 3 Zrotation Xrotation Yrotation
                JOINT lRing2
                {
                  OFFSET 2.60934 -0.819778 -0.0198488
                  CHANNELS 3 Zrotation Xrotation Yrotation
                  End Site
                  {
                    OFFSET 2.33842 -0.294052 0.168128
                  }
                }
              }
              JOINT lPinky1
              {
                OFFSET 8.27202 -0.0477905 -0.4584
                CHANNELS 3 Zrotation Xrotation Yrotation
                JOINT lPinky2
                {
                  OFFSET 1.82734 -0.647385 -0.700984
                  CHANNELS 3 Zrotation Xrotation Yrotation
                  End Site
                  {
                    OFFSET 1.69225 -0.51767 -0.607171
                  }
                }
              }
            }
          }
        }
      }
    }
  }
  JOINT rButtock
  {
    OFFSET -8.77824 4.35084 1.2192
    CHANNELS 3 Zrotation Xrotation Yrotation
    JOINT rThigh
    {
      OFFSET 0 -1.70687 -2.19456
      CHANNELS 3 Zrotation Xrotation Yrotation
      JOINT rShin
      {
        OFFSET 0 -36.8199 0.73152
        CHANNELS 3 Zrotation Xrotation Yrotation
        JOINT rFoot
        {
          OFFSET 0.73152 -45.1104 -5.12064
          CHANNELS 3 Zrotation Xrotation Yrotation
          End Site
          {
            OFFSET -1.1221 -3.69964 12.103
          }
        }
      }
    }
  }
  JOINT lButtock
  {
    OFFSET 8.77824 4.35084 1.2192
    CHANNELS 3 Zrotation Xrotation Yrotation
    JOINT lThigh
    {
      OFFSET 0 -1.70687 -2.19456
      CHANNELS 3 Zrotation Xrotation Yrotation
      JOINT lShin
      {
        OFFSET 0 -36.8199 0.73152
        CHANNELS 3 Zrotation Xrotation Yrotation
        JOINT lFoot
        {
          OFFSET -0.73152 -45.1104 -5.12064
          CHANNELS 3 Zrotation Xrotation Yrotation
          End Site
          {
            OFFSET 1.1221 -3.69964 12.103
          }
        }
      }
    }
  }
}
MOTION
Frames:	5
Frame Time:	0.03333
0.0 0.0 0.0 0.0 0.0 0.0 0.0 0.0 0.0 0.0 0.0 0.0 0.0 0.0 0.0 0.0 0.0 0.0 0.0 0.0 0.0 0.0 0.0 0.0 0.0 0.0 0.0 0.0 0.0 0.0 0.0 0.0 0.0 0.0 0.0 0.0 0.0 0.0 0.0 0.0 0.0 0.0 0.0 0.0 0.0 0.0 0.0 0.0 0.0 0.0 0.0 0.0 0.0 0.0 0.0 0.0 0.0 0.0 0.0 0.0 0.0 0.0 0.0 0.0 0.0 0.0 0.0 0.0 0.0 0.0 0.0 0.0 0.0 0.0 0.0 0.0 0.0 0.0 0.0 0.0 0.0 0.0 0.0 0.0 0.0 0.0 0.0 0.0 0.0 0.0 0.0 0.0 0.0 0.0 0.0 0.0 0.0 0.0 0.0 0.0 0.0 0.0 0.0 0.0 0.0 0.0 0.0 0.0 0.0 0.0 0.0 0.0 0.0 0.0 0.0 0.0 0.0 0.0 0.0 0.0 0.0 0.0 0.0 0.0 0.0 0.0 0.0 0.0 0.0 0.0 0.0 0.0
13.697300000000002 67.85759999999999 -4.0739 -3.616141 24.725606 3.354037 0.495044 -0.902214 -90.810967 10.908395 -4.122399 110.48233 16.990779 8.439714 90.143328 -21.30411 1.528905 -68.669255 -0.002272 0.0 -0.000528 -0.000649 -0.0 0.004417 -155.614159 -4.236486 161.99076 26.648505 -41.662281 18.352232 19.517452 42.687791 -146.453019 171.677216 -11.917553 144.611508 0.56773 -0.561559 -0.083513 -116.111785 -3.781985 105.159937 -151.353913 -17.158351 121.132748 95.744526 -70.675756 42.635957 -36.03512 51.723362 29.832212 80.698617 -77.901018 52.070302 -72.757327 -72.141838 -89.772921 14.143846 25.998982 -1.128005 -134.695948 -14.106235 -132.115035 10.665444 22.667253 3.572825 155.716394 -4.925033 -162.13661 74.275175 68.609715 -100.414204 72.48031 80.883602 -137.963707 5.774401 13.926189 0.29599 -9.390688 -9.380868 0.683564 88.933209 26.284531 -78.903341 -2.327477 -3.86717 1.260856 160.549995 -12.984275 -110.187769 152.82504 14.793354 -138.515789 172.222674 -31.3736 -143.675148 145.117692 0.18553 179.186484 -11.550306 20.328904 6.652223 158.219754 60.369433 150.796062 156.654546 38.418816 146.594292 -179.979931 75.750461 -0.016513 167.245796 25.468847 48.735922 86.717116 17.911625 7.790187 -42.185687 -47.697428 -137.044464 0.0 -0.00082 0.000903 4.275825 -23.768781 10.509042 0.088623 55.482153 -37.647499 117.398115 17.450506 -20.967994
20.2048 66.1555 -5.9055 -0.455938 29.16912 5.845593 -3.713406 -2.426388 -80.33927 9.78449 -4.327793 94.462859 13.805103 11.318933 105.18198 -23.843454 3.679014 -94.769051 -1.7e-05 0.0 -0.001901 -1.7e-05 0.0 -0.001901 -155.659522 -4.540432 162.054929 12.055219 1.680965 21.140432 7.965539 -0.096683 -118.614436 169.957711 -19.409233 143.397897 90.436683 -50.939938 38.665847 -52.954272 26.817388 12.618557 37.216175 -57.91766 -0.64165 -4.351853 28.194986 5.434452 -164.638101 -19.283394 144.73459 -151.665367 24.821459 136.78315 -0.000446 -0.018241 -0.007572 -23.38944 72.954509 36.419857 0.097933 0.258887 0.088635 3.245102 2.161671 0.668697 155.460177 -3.22788 -161.777257 129.034855 41.127651 -151.408714 -3.280169 54.557164 -85.088611 8.897589 16.190538 0.358556 0.543351 0.5365 -0.085464 108.779695 4.442351 -99.062047 10.570181 15.013977 -6.864295 176.596529 -31.024195 -107.608527 10.975253 25.79008 -7.639581 -3.255131 0.207693 -0.022738 -0.00084 0.063729 -0.020328 155.796205 -54.770168 -179.058335 -20.722121 70.567215 -12.996939 -14.903963 44.094772 -7.702136 -0.000278 0.000194 0.000357 -14.727768 -54.373352 -180.0 -79.792446 -43.031775 130.788169 -74.175631 25.681017 10.0482 179.993279 75.749967 0.006935 174.303675 49.210883 -172.494655 -5.948336 -63.06847 -100.400071 -101.530708 63.262578 -3.808398
26.3581 64.6318 -7.3948 1.439983 33.288641 7.58951 -8.522834 -1.965722 -0.0 1.338343 -11.198919 7.298765 -8.857965 9.061194 -66.051492 29.972706 13.212333 61.073419 0.000287 -0.0 -0.000556 0.002112 0.0 0.002911 -0.048704 0.292364 0.065519 5.19147 20.497996 -2.301448 -104.622912 15.256271 56.6169 81.202067 -71.435048 65.653495 -78.030321 38.688678 42.413099 80.983781 -50.437807 30.532636 12.215795 -21.784876 -5.121073 -97.142145 44.861772 78.463708 0.54111 -1.589983 -0.294504 -7.312131 26.196323 6.026046 -0.000752 -0.018549 -0.005558 11.572144 -36.414891 -4.390986 -146.228636 15.470221 -142.746982 -126.635095 -29.694177 -124.082081 -0.132805 -0.807201 0.178404 164.884864 75.10719 -159.634231 -59.091072 3.111524 -167.804735 134.382699 63.305335 -110.768561 168.110211 -5.789366 -89.870425 93.056224 9.463819 -37.063568 4.705426 7.224375 -2.854743 167.104414 -20.241239 -109.647657 160.672075 -6.66832 -143.244112 85.913353 63.860037 -77.760762 145.09767 -1.52189 178.649574 -8.902852 -14.070197 10.959557 17.761435 -30.900991 16.990219 154.179363 38.303873 148.336522 -0.006735 0.001048 -0.006735 -7.700835 -54.22577 -6.350199 85.874422 51.614006 124.217294 113.155344 -7.00051 -157.511172 0.001854 -0.000718 -0.0 -9.151175 -24.112773 -108.442747 -57.584519 -15.489962 164.148438 -17.213445 -25.951689 -73.021378
32.2556 63.568599999999996 -8.8306 2.168424 35.865544 7.522762 -6.364444 -4.120709 -85.319024 8.4532 -0.694896 87.617407 5.621922 4.289306 50.68304 -6.938569 -17.076041 -61.843209 -0.002531 0.0 -0.003116 -0.002531 0.0 -0.003116 -151.972443 14.763891 157.370791 12.286147 15.084078 14.032825 84.283237 28.092044 -102.459612 -159.697902 53.795194 134.522387 -85.829501 38.630918 47.955362 -121.577393 -16.498984 77.16621 -50.385336 40.826956 40.024669 -62.683061 49.940333 43.549229 -0.057133 0.167937 0.032348 -129.274905 52.117767 118.507001 0.000488 -0.018334 -0.006844 11.112073 -13.792123 -1.713213 -0.530064 -1.364076 -0.490168 -159.489367 55.55973 -150.075823 82.877617 68.300776 -86.000541 79.723485 -79.066445 95.855546 -106.871373 49.59691 -50.419747 95.041924 67.946665 -73.159529 -82.304715 -50.136801 -32.955242 153.154155 -10.964815 -120.006777 -37.215639 -57.917898 0.644741 11.604947 34.728423 -10.293555 -23.903605 -61.333861 -1.400029 169.530639 -23.365932 -144.210072 0.015285 -1.32323 0.415356 -9.251906 13.60021 -1.79074 126.798431 -26.621074 124.514434 145.855979 8.930811 141.335342 -179.978213 75.748749 -0.014907 -177.593678 20.253082 -161.184588 -72.549681 -29.838035 9.332732 73.527307 79.174139 2.561788 -179.978213 75.748749 -0.014907 156.323166 54.27297 19.31949 -25.418221 50.404189 -50.945014 -173.018942 -63.34614 -88.381608
